<?xml version="1.0" encoding="UTF-8" standalone="no"?>
<!DOCTYPE svg PUBLIC "-//W3C//DTD SVG 1.1//EN" "http://www.w3.org/Graphics/SVG/1.1/DTD/svg11.dtd">
<svg width="100%" height="100%" viewBox="0 0 16 16" version="1.1" xmlns="http://www.w3.org/2000/svg" xmlns:xlink="http://www.w3.org/1999/xlink" xml:space="preserve" xmlns:serif="http://www.serif.com/" style="fill-rule:evenodd;clip-rule:evenodd;stroke-linejoin:round;stroke-miterlimit:2;">
    <g id="outline">
        <rect x="0" y="0" width="16" height="16" style="fill-opacity:0;fill-rule:nonzero;"/>
        <path d="M16,3L16,12L8,12L8,9L6,9L6,11L0,11L0,4L6,4L6,6L8,6L8,3L16,3Z" style="fill:rgb(246,246,246);fill-rule:nonzero;"/>
    </g>
    <g id="icon_x5F_bg">
        <path d="M1,5L5,5L5,10L1,10L1,5ZM9,4L15,4L15,11L9,11L9,4ZM6,7L8,7L8,8L6,8L6,7Z" style="fill:rgb(66,66,66);fill-rule:nonzero;"/>
    </g>
</svg>
